<svg width="882" height="816" viewBox="0 0 882 816" fill="none" xmlns="http://www.w3.org/2000/svg">
<path d="M370.575 456.853C357.116 445.452 343.498 434.527 330.039 422.968C315.788 410.617 301.537 398.266 287.603 385.44C281.902 380.214 276.36 374.672 270.66 369.447C267.968 367.072 269.235 364.38 269.868 362.163C270.501 359.471 271.293 356.621 271.926 353.929C272.877 350.762 273.827 347.595 274.935 344.587C276.677 339.52 278.735 334.453 281.11 329.386C284.277 322.419 287.603 315.61 291.245 308.801C300.27 291.858 310.404 275.39 320.538 259.081C327.03 248.63 333.681 238.338 340.173 227.887C348.249 214.903 356.007 201.76 363.925 188.617C370.258 178.167 376.276 167.399 382.134 156.632C386.885 147.765 391.635 138.739 396.069 129.555C400.186 121.004 404.144 112.612 407.945 104.061C410.953 97.4109 413.645 90.4438 416.337 83.6349C420.612 73.1842 424.096 62.5751 427.579 51.966C429.004 47.6907 430.588 43.5738 431.38 39.1401C431.538 37.715 432.805 37.3983 434.071 37.715C441.83 38.9818 449.747 38.5067 457.506 38.6651C467.957 38.8234 478.408 38.9818 488.7 38.3484C495.667 38.0317 502.476 37.3983 509.443 36.7649C519.419 35.6565 529.395 34.2314 539.371 32.648C545.229 31.6979 551.088 30.5895 556.947 29.3228C562.964 28.056 569.139 26.7892 575.156 25.0474C580.699 23.464 586.241 21.8806 591.624 20.1388C599.067 17.7636 606.509 15.3884 613.793 12.5382C618.385 10.7964 622.977 8.89629 627.569 6.99615C632.161 5.09602 636.594 2.87919 641.186 0.97905C642.453 0.345671 643.403 0.504016 644.511 1.77077C654.962 13.6466 664.78 26.1559 673.964 39.1401C682.356 51.016 690.431 63.2085 697.874 75.8761C705.791 89.0187 713.233 102.478 720.992 115.779C726.217 124.805 731.284 133.672 736.826 142.381C742.368 151.248 747.91 159.799 754.086 168.191C762.162 179.275 771.029 189.726 780.688 199.543C781.48 200.335 783.38 201.127 782.746 202.393C782.43 203.343 780.529 202.71 779.421 202.71C774.671 202.71 769.92 202.71 765.17 202.71C760.578 202.71 755.986 202.235 751.552 201.602C744.11 200.652 736.668 199.385 729.384 197.801C720.517 195.901 712.125 193.051 703.574 190.201C701.516 189.409 699.774 187.984 698.19 186.401C687.264 175.158 677.764 162.649 669.213 149.506C665.571 143.806 662.246 137.947 658.762 132.088C658.446 131.455 657.971 130.822 657.337 130.347C657.179 130.98 657.337 131.455 657.496 132.088C659.396 137.789 661.138 143.331 662.879 149.031C664.463 153.782 666.205 158.374 667.788 163.124C670.48 170.725 673.647 178.008 676.814 185.451C681.247 195.743 685.998 205.877 690.748 215.853C694.707 224.245 699.14 232.321 703.257 240.554C708.008 249.58 712.916 258.606 718.142 267.473C722.892 275.549 727.801 283.624 732.868 291.541C739.043 301.359 745.694 311.018 752.502 320.36C760.895 332.078 769.762 343.32 779.263 354.246C780.371 355.354 781.321 356.621 782.271 357.73C782.905 358.363 783.063 359.155 781.796 359.313C779.421 359.788 776.888 360.263 774.512 360.896C771.187 361.688 767.862 362.48 764.695 363.113C761.845 363.747 758.995 364.538 756.144 365.013C751.869 365.805 747.594 366.914 743.318 367.864C740.31 368.497 737.301 369.289 734.293 370.08C728.117 371.822 721.784 372.931 715.767 374.831C711.016 376.256 706.266 377.206 701.515 378.473C697.715 379.423 694.073 380.69 690.431 381.64C687.106 382.59 683.623 383.381 680.297 384.331C676.022 385.598 671.588 386.707 667.313 387.973C659.871 390.032 652.429 392.249 645.145 394.307C641.186 395.574 637.228 396.999 633.111 398.266C628.994 399.374 625.035 400.641 621.076 401.908C616.168 403.491 611.259 404.916 606.35 406.5C599.225 408.875 592.099 411.092 585.132 413.625C578.798 415.684 572.465 417.9 566.289 420.117C559.164 422.809 552.038 425.184 544.913 427.718C539.371 429.776 533.67 431.835 528.128 434.052C521.003 436.744 514.035 439.594 506.91 442.286C499.468 445.136 492.026 448.303 484.583 451.311C475.874 454.953 467.165 458.595 458.456 462.395C455.923 463.504 453.389 464.612 450.856 465.721C447.056 466.671 444.047 468.887 440.405 470.313C440.88 470.788 441.355 470.788 441.83 470.629C443.572 469.996 445.472 469.521 447.056 468.729C448.006 468.254 449.431 468.729 449.906 467.462C453.706 466.196 457.665 465.087 461.465 463.82C467.64 461.762 473.816 459.703 479.991 457.803C485.217 456.22 490.284 454.478 495.509 452.895C499.468 451.786 503.426 450.52 507.385 449.094C512.135 447.353 517.202 446.086 522.111 444.661C527.336 443.077 532.403 441.494 537.629 439.91C542.221 438.644 546.813 437.377 551.246 436.11C554.73 435.16 558.055 433.893 561.539 432.943C565.814 431.676 570.089 430.726 574.365 429.46C582.282 427.243 590.358 425.184 598.275 422.968C598.908 422.809 600.017 422.493 600.333 422.968C600.808 423.918 599.7 424.234 599.067 424.709C587.982 433.26 576.265 440.702 564.231 447.669C551.721 454.953 538.737 461.762 525.911 468.729C514.51 474.905 502.951 480.605 491.55 486.622C479.991 492.798 468.274 498.815 456.873 505.307C436.922 516.549 417.604 528.742 399.552 542.993C378.651 559.777 358.699 577.512 338.431 595.088C328.456 603.797 318.321 612.348 307.712 620.423C302.012 624.699 296.312 628.816 289.819 631.824C287.761 632.932 285.544 633.883 283.327 634.674C282.694 634.991 281.585 635.308 281.11 634.674C280.635 634.041 281.269 633.408 281.744 632.774C282.219 632.141 282.061 631.507 281.269 631.032C277.944 628.974 274.777 626.915 271.451 624.857C270.501 624.224 269.868 624.54 269.235 625.49C267.493 628.499 265.434 631.507 263.693 634.516C262.901 635.941 261.792 635.783 260.684 635.308C260.684 635.308 260.526 635.308 260.526 635.149C256.725 633.091 256.567 632.774 258.784 628.974C260.209 626.599 261.634 624.224 263.218 621.848C263.851 620.74 263.851 619.948 262.742 619.156C259.892 617.098 256.725 615.673 253.875 613.614C253.083 613.139 251.975 612.664 251.025 613.773C250.392 614.723 249.6 614.406 249.283 613.456C245.958 603.48 244.216 593.346 244.533 582.896C244.691 576.72 245.483 570.545 246.75 564.528C248.333 557.877 250.55 551.227 253.083 544.735C257.992 532.7 264.326 521.458 271.293 510.69C276.36 503.09 281.902 495.648 287.444 488.522C299.795 472.846 313.413 458.278 327.347 444.186C329.247 442.286 331.147 440.385 333.048 438.485C333.839 437.694 334.473 437.377 335.581 438.169C341.915 441.811 348.407 445.294 354.741 448.936C359.649 451.628 364.558 454.32 369.467 457.012C371.209 458.912 373.584 459.703 375.801 460.495C374.534 459.703 372.95 457.803 370.575 456.853ZM443.255 84.2683C443.097 85.2184 443.73 85.6934 444.047 86.1685C446.422 89.3354 448.956 92.5022 451.331 95.5108C452.281 96.6192 452.281 97.4109 451.648 98.6777C444.839 110.395 438.03 122.271 431.38 134.147C425.521 144.756 419.979 155.523 414.12 166.291C406.994 179.275 400.344 192.576 393.694 205.877C387.835 217.436 382.134 229.154 376.592 240.871C370.892 253.064 365.033 265.256 359.649 277.607C354.424 289.8 349.04 301.992 344.132 314.501C341.756 320.835 339.223 327.011 336.689 333.344C336.056 335.086 335.898 336.828 336.214 338.57C336.848 341.578 337.323 344.745 338.273 347.754C340.015 353.929 342.231 359.946 344.923 365.963C352.366 381.956 363.133 395.257 376.117 406.975C387.201 416.95 399.394 425.343 412.853 431.993C414.437 432.785 415.703 432.785 417.287 432.152C423.779 429.301 429.954 426.134 436.447 423.284C442.78 420.592 449.114 417.9 455.29 415.209C466.849 410.142 478.25 404.6 489.492 398.899C499.309 393.99 508.81 388.448 518.311 383.065C532.087 375.147 545.863 367.389 560.272 360.738C566.923 357.73 573.415 354.721 580.223 352.187C586.716 349.812 593.366 347.279 600.017 345.062C605.084 343.479 610.151 341.737 615.376 340.312C616.801 339.837 616.959 339.362 616.643 338.253C614.743 331.603 612.367 325.111 609.834 318.618C604.45 305.001 598.275 291.7 591.783 278.557C587.032 268.898 582.124 259.239 576.898 249.738C570.406 237.863 563.756 225.987 556.63 214.428C548.871 201.918 541.112 189.409 532.72 177.375C525.436 166.766 517.994 156.315 510.077 146.181C503.585 137.947 497.093 129.872 489.967 122.113C479.2 110.395 467.799 99.1527 454.181 90.7605C451.173 87.9102 447.531 85.5351 443.255 84.2683ZM653.854 118.471C657.654 106.437 643.245 69.5423 632.794 64.3169C641.186 81.8932 648.153 99.7861 653.854 118.471ZM627.727 91.0772C635.802 102.478 644.036 112.77 653.062 123.063C654.012 115.146 637.228 93.6107 627.727 91.0772Z" fill="#4ADE80"/>
<path d="M315.947 813.129C314.047 813.129 312.147 813.129 310.405 813.129C225.057 813.129 139.868 813.129 54.5199 813.129C52.9364 813.129 51.353 813.129 49.7695 813.129C49.7695 812.812 49.7695 812.337 49.9279 812.179C52.303 807.27 54.8366 802.203 56.895 797.136C57.8451 794.761 60.537 792.703 59.1119 789.536C60.0619 789.852 60.6953 789.536 61.1703 788.586C62.1204 786.369 63.3872 784.31 64.4956 782.094C65.129 780.985 65.2873 779.718 64.9706 778.452C64.1789 773.543 63.2288 768.634 62.4371 763.726C59.9036 749 59.7452 734.273 60.2203 719.547C60.3786 713.055 61.1703 706.721 61.9621 700.229C63.3872 690.254 65.129 680.436 67.6625 670.777C68.7709 666.344 70.0376 662.068 71.4627 657.635C73.3629 651.618 75.5797 645.917 77.7965 640.058C78.4299 638.317 79.2216 638.158 81.1218 638.475C86.5055 639.425 91.8892 640.058 97.4313 639.583C100.598 639.267 100.44 639.267 100.757 642.434C101.39 648.767 102.498 654.943 104.398 660.96C105.507 664.285 106.932 667.61 108.04 670.936C108.357 671.727 109.149 672.202 109.307 672.994C109.782 671.411 109.624 669.827 109.465 668.244C108.515 660.485 108.515 652.726 109.465 644.809C109.465 644.334 109.624 644.017 109.624 643.542C109.149 639.425 111.049 636.1 113.582 632.933C124.35 619.474 135.117 606.173 146.36 593.03C159.186 577.829 172.487 563.103 185.788 548.377C196.08 536.976 206.531 525.734 217.14 514.649C230.282 500.873 243.425 487.097 256.726 473.638C273.194 457.012 289.82 440.702 307.08 425.026C308.188 423.918 309.138 423.918 310.405 424.551C313.888 426.61 317.53 428.51 321.014 430.568C323.072 431.677 323.072 432.31 321.489 433.735C309.771 444.344 299.004 455.904 288.712 467.779C279.369 478.389 270.819 489.631 263.218 501.665C255.776 513.224 249.284 525.259 244.533 538.243C242.475 544.102 240.892 549.96 239.308 555.977C236.458 566.903 236.458 577.829 237.091 588.913C237.25 592.555 238.2 596.197 239.15 599.839C240.258 603.639 241.525 607.281 242.792 610.923C243.9 613.932 245.484 616.782 246.909 619.632C247.384 620.424 247.384 621.057 246.909 622.007C244.217 627.233 244.217 627.232 238.833 625.807C232.024 623.907 225.057 622.957 218.09 624.541C209.381 626.599 203.047 631.824 200.039 640.375C197.03 649.084 199.564 656.843 204.789 663.968C207.322 667.61 210.173 670.936 213.181 674.102C213.973 674.894 214.131 675.528 213.498 676.636C208.906 684.078 204.472 691.52 199.88 698.804C199.247 699.913 198.455 700.229 197.347 699.121C191.646 693.579 186.579 687.562 182.937 680.278C182.462 679.328 181.829 678.694 180.562 679.486C176.92 681.703 173.278 683.762 169.478 685.82C167.736 686.77 167.736 687.72 168.528 689.304C171.378 695.004 175.337 699.754 179.612 704.505C182.462 707.672 185.629 710.363 188.796 713.055C189.905 714.005 190.221 714.797 189.271 716.064C188.321 717.331 187.688 718.756 186.896 720.022C186.104 721.289 186.579 722.081 187.529 722.714C190.696 724.614 193.863 726.515 196.872 728.415C197.822 729.048 198.613 728.573 198.93 727.94C199.405 726.99 200.039 726.198 200.672 725.406C202.414 722.873 202.255 722.873 204.947 724.298L205.106 724.456C208.273 726.198 208.273 726.198 206.372 729.365C204.314 732.848 204.314 732.848 207.639 735.065C210.014 736.649 212.389 738.074 214.765 739.657C216.031 740.449 216.981 739.974 217.615 738.865C218.565 737.282 219.515 735.699 220.465 733.957C221.098 732.69 221.89 732.373 223.315 732.848C228.541 734.432 233.766 734.907 239.308 734.907C251.184 734.748 261.16 727.148 263.693 715.747C265.118 709.888 263.535 704.188 260.526 698.963C258.151 694.687 254.984 690.887 251.659 687.403C250.551 686.295 250.392 685.345 251.184 683.92C255.618 676.794 259.893 669.669 264.327 662.702C265.593 660.643 266.068 660.485 267.81 662.227C270.819 665.394 273.352 668.877 275.886 672.519C276.519 673.469 276.836 673.627 277.944 672.994C281.744 670.461 285.545 668.244 289.345 665.869C290.453 665.235 290.295 664.443 289.662 663.335C286.02 657.476 281.428 652.251 276.202 647.817C274.936 646.709 275.094 645.917 275.727 644.492C277.311 641.167 279.528 640.058 283.17 639.9C286.811 639.742 290.453 638.475 293.937 637.208C306.129 632.616 316.897 625.491 327.348 617.89C338.749 609.498 349.516 600.472 360.442 591.447C374.059 580.046 387.677 568.487 401.77 557.719C415.071 547.585 428.847 537.926 443.256 529.692C452.282 524.467 461.466 519.4 470.65 514.649C484.901 507.207 498.993 499.607 513.244 492.323C522.903 487.256 532.721 482.189 542.38 476.963C554.414 470.471 566.448 463.821 578.324 456.854C590.2 449.886 601.759 442.603 613.001 434.527C620.127 429.302 627.094 423.76 633.111 417.267C634.378 415.842 635.803 415.051 637.545 414.576C641.978 413.626 646.412 412.675 651.004 411.725C655.913 410.775 660.822 409.825 665.572 408.717C668.105 408.084 669.847 408.4 671.589 410.617C678.556 419.801 685.682 428.668 692.649 437.694C696.924 443.078 701.199 448.461 705 454.162C705 454.32 705 454.478 705 455.112C701.833 453.37 698.508 454.478 695.341 453.687C694.866 453.528 694.549 453.37 694.232 453.212C684.256 452.895 674.281 451.787 664.305 452.578C662.088 452.737 660.03 453.053 657.813 453.053C653.221 453.212 648.787 454.003 644.195 454.637C641.503 454.954 638.812 455.429 636.12 455.745C632.953 456.062 629.786 456.854 626.777 457.487C621.394 458.754 616.168 460.02 610.785 461.604C603.501 463.662 596.534 466.038 589.408 468.571C583.233 470.788 577.216 473.321 571.357 475.855C570.723 476.172 570.248 476.488 569.615 476.805C568.982 476.805 568.348 476.805 568.19 477.597C568.032 477.597 567.715 477.755 567.556 477.755C565.498 478.072 563.756 479.18 562.014 480.13C558.848 481.714 555.522 482.822 552.672 485.039C552.514 485.039 552.514 485.039 552.355 485.197C548.555 486.622 545.072 488.523 541.905 490.898C543.963 490.423 545.863 489.948 547.605 489.156C549.189 488.364 551.089 488.206 552.514 486.939C561.381 483.931 570.248 480.764 579.274 478.547C583.074 477.597 586.716 476.488 590.358 475.538C592.417 475.063 594.317 474.747 596.375 474.272C599.859 473.48 603.342 472.688 606.826 471.896C608.568 471.421 610.468 471.58 612.21 471.105C614.427 470.63 616.802 469.838 619.177 469.996C622.66 470.155 625.986 469.205 629.311 468.888C643.562 467.304 657.813 466.988 672.064 467.621C678.239 467.938 684.573 468.413 690.749 469.205C695.974 469.996 701.199 470.63 706.425 471.738C719.409 474.43 732.077 478.072 744.427 482.98C760.104 489.156 774.513 497.548 788.606 507.049C800.481 514.966 812.041 523.358 823.125 532.542C823.441 532.859 823.916 533.176 824.233 533.492C824.708 534.601 825.658 535.234 826.767 535.709C826.925 534.126 826.133 533.176 825.183 532.542C821.858 525.734 818.058 519.083 814.099 512.433C806.974 500.24 799.69 488.206 792.089 476.33C783.222 462.237 773.721 448.461 763.904 435.002C761.687 431.835 759.312 428.827 756.937 425.66C757.095 425.026 756.62 424.71 756.303 424.235C755.828 423.443 755.987 423.126 756.937 423.126C760.42 427.56 764.062 431.994 767.704 436.269C773.563 443.236 779.263 450.52 784.964 457.645C792.723 467.463 800.165 477.28 807.449 487.414C819.324 504.04 830.725 520.825 841.334 538.243C848.46 549.96 855.269 561.994 861.603 574.187C863.503 577.987 865.403 581.788 867.303 585.588C867.145 586.221 867.461 586.696 868.095 587.013C868.095 587.171 868.095 587.33 868.095 587.33C868.411 589.23 869.203 590.813 870.47 592.238C870.47 592.397 870.47 592.397 870.628 592.555C870.787 595.405 869.52 592.713 868.886 593.03C868.886 592.555 868.57 592.238 868.095 592.08C868.095 591.922 868.095 591.922 867.936 591.763C867.936 591.288 867.461 591.288 867.145 591.288C863.978 587.013 860.177 583.371 856.219 579.887C849.41 573.712 842.126 568.17 834.209 563.42C826.45 558.669 818.374 554.552 809.982 551.069C805.39 549.169 800.64 547.268 795.889 545.685C790.822 543.943 785.597 542.36 780.372 540.935C775.621 539.668 770.713 538.559 765.962 537.451C762.162 536.659 758.203 535.868 754.403 535.234C752.186 534.918 750.128 533.809 747.594 534.601C771.188 550.119 787.022 571.653 798.423 596.83C787.497 588.596 776.73 580.046 765.487 572.129C754.245 564.211 742.844 556.611 730.968 549.644C719.092 542.676 706.9 536.343 693.916 530.959C695.024 533.176 696.766 534.759 698.191 536.343C705.475 544.577 712.125 553.286 718.301 562.311C725.426 572.445 731.602 583.213 736.194 594.772C737.777 598.889 739.044 603.164 739.994 607.439C741.261 612.19 740.786 616.94 740.469 621.69C740.152 625.966 739.677 630.241 738.885 634.516C737.46 641.8 736.352 649.242 733.977 656.368C732.077 662.068 730.176 667.61 727.168 672.677C726.376 674.103 725.268 675.053 723.843 675.844C709.275 685.187 694.866 694.529 680.298 703.871C679.506 704.346 678.714 705.296 677.289 704.821C679.823 701.813 682.831 699.438 685.523 696.904C692.807 689.937 700.249 683.128 707.533 676.319C708.642 675.211 709.275 673.944 709.433 672.361C710.7 661.752 711.967 651.142 713.234 640.533C714.025 632.933 714.659 625.332 716.084 617.732C716.876 612.981 714.817 609.181 712.6 605.539C704.366 591.447 693.916 579.412 681.565 568.803C670.956 559.619 659.238 551.86 646.887 545.368C636.753 540.143 626.461 535.551 615.693 531.751C611.101 530.009 606.509 529.534 601.759 529.217C595.108 528.742 588.458 528.267 581.808 528.584C574.207 529.059 566.448 529.375 558.848 530.326C547.288 531.751 535.888 533.967 524.645 536.976C518.628 538.559 512.769 540.46 506.911 542.518C500.102 544.735 493.451 547.427 486.801 550.119C479.2 553.286 471.758 557.086 464.474 561.044C452.44 567.537 440.881 574.662 430.272 582.896C428.53 584.163 428.53 586.063 428.372 587.646C427.58 593.505 426.313 599.364 425.521 605.223C425.363 606.173 423.78 607.756 425.996 608.389C423.78 610.765 421.721 613.14 419.188 615.04C419.188 611.556 417.762 608.389 417.129 605.064C416.654 601.739 415.546 598.572 414.912 595.247C414.754 594.455 414.596 593.505 413.962 593.347C413.17 593.03 412.854 593.98 412.379 594.455C406.837 600.947 401.77 607.598 396.861 614.565C392.111 621.374 387.519 628.183 383.085 635.308C376.751 645.759 370.734 656.368 365.192 667.294C359.017 679.328 353.316 691.679 348.249 704.188C346.191 709.413 343.499 714.48 341.757 719.864C338.59 728.89 335.265 737.757 332.415 746.783C330.673 752.483 328.773 758.183 327.189 764.042C325.448 770.218 323.864 776.393 322.122 782.569C319.589 791.594 317.847 800.937 315.789 810.121C315.947 810.754 316.105 812.021 315.947 813.129ZM70.9877 769.584C71.9378 769.584 71.7794 768.793 71.7794 768.159C71.7794 768.001 71.7794 767.684 71.9378 767.526C77.1632 758.5 82.3885 749.475 87.6139 740.449C95.8478 726.515 104.557 713.055 113.741 699.913C120.55 690.095 127.833 680.595 134.959 671.094C145.726 656.843 156.335 642.434 166.945 628.183C174.545 617.89 182.304 607.756 189.905 597.464C200.514 583.054 210.964 568.645 221.257 554.236C227.907 545.052 234.399 535.709 240.892 526.367C247.384 516.866 253.559 506.891 261.001 497.865C261.793 496.915 262.901 495.965 263.06 494.223C258.626 497.232 253.559 498.815 250.234 502.932C247.7 506.099 244.85 509.107 242.158 512.116C233.133 522.408 224.107 532.701 214.923 542.993C209.223 549.485 203.364 555.977 197.663 562.469C188.163 573.395 178.504 584.163 169.003 595.089C166.153 598.414 162.511 601.422 160.452 605.223C149.368 626.124 138.443 647.184 127.517 668.085C125.3 672.361 123.716 677.269 118.491 679.011C117.224 679.486 115.958 680.12 114.849 680.911C113.424 681.861 111.366 682.336 111.207 684.712C111.207 685.503 110.732 686.612 110.416 687.403C108.357 693.579 106.299 699.754 104.398 705.93C104.082 707.355 103.29 708.147 101.548 707.83C97.9063 707.038 94.2644 706.721 90.7808 705.771C88.564 705.138 86.1888 705.455 83.972 704.505C82.2302 703.713 80.8051 704.346 80.6467 706.722C80.4884 709.255 79.855 711.947 79.38 714.48C78.7466 718.281 78.1132 721.923 77.4798 725.723C76.6881 729.681 75.8964 733.798 75.1047 737.757C74.4713 741.874 73.9963 745.833 73.2045 749.95C72.2545 755.175 71.3044 760.242 70.671 765.467C69.2459 767.526 70.0376 769.901 69.4043 772.118C70.0376 771.326 71.1461 770.851 70.9877 769.584Z" fill="#4ADE80"/>
<path d="M419.503 614.406C422.037 612.506 424.095 609.973 426.312 607.756C433.596 600.472 440.88 593.03 448.48 586.063C451.806 582.896 456.239 581.154 460.356 578.937C469.065 574.187 478.249 570.07 487.591 566.428C493.608 564.211 499.467 562.153 505.643 560.411C515.46 557.561 525.436 555.66 535.57 554.394C549.663 552.652 563.597 552.81 577.69 553.919C583.548 554.394 589.565 555.185 595.266 556.452C602.55 558.036 609.675 559.777 616.801 561.994C621.551 563.578 626.301 565.003 630.893 566.744C637.86 569.436 644.828 572.445 651.478 575.77C661.137 580.679 670.638 586.063 679.505 592.238C688.214 598.255 696.765 604.747 704.524 611.873C705.632 612.823 705.79 613.773 705.157 615.04C704.365 616.781 704.365 618.682 704.049 620.582C701.673 630.399 698.19 639.9 693.756 648.925C688.847 658.901 682.83 667.927 675.705 676.319C672.538 679.961 669.529 683.761 665.571 686.77C663.671 688.195 662.562 690.253 661.77 692.47C661.454 693.42 660.979 694.37 660.504 695.479C660.029 695.479 660.029 695.795 660.187 696.112C660.029 696.587 659.87 697.062 659.712 697.537C658.762 698.804 658.287 697.695 657.654 697.062C654.012 693.42 649.578 691.362 644.511 690.887C644.511 690.412 644.353 690.095 643.878 690.095C643.561 690.095 643.244 689.937 642.769 689.937C642.294 689.303 641.661 688.512 641.502 687.72C639.919 683.603 637.227 680.594 633.427 678.377C628.835 675.527 623.926 675.052 619.017 676.952C614.584 678.694 611.1 682.019 608.567 686.136C607.775 687.403 606.825 688.512 605.083 688.195C602.391 687.72 599.858 688.987 597.324 689.145C596.216 689.303 595.266 689.937 593.999 689.937C593.207 690.095 592.574 690.57 592.891 691.52C592.891 692.153 592.891 692.629 592.891 693.262C592.574 699.121 591.307 704.821 590.515 710.68C589.882 715.43 588.615 720.18 590.04 725.089C590.674 727.306 590.5 727.5 587.824 727.148C587.19 726.989 586.398 726.831 585.765 726.831C580.223 726.989 574.523 726.198 568.981 725.723C564.547 725.248 560.113 725.406 555.68 724.931C553.779 724.772 551.879 724.297 549.979 724.297C549.029 724.297 549.029 723.506 548.712 722.872C546.654 718.28 544.595 713.688 542.537 709.096C542.22 708.305 542.379 707.355 542.379 706.563C542.379 696.587 542.379 686.611 542.379 676.636C542.379 675.844 542.537 674.894 542.062 673.944C540.479 675.844 540.478 678.061 540.003 680.119C538.42 685.661 537.153 691.362 535.887 697.062C535.411 699.437 535.57 702.129 535.57 704.504C535.57 706.88 535.57 706.879 533.195 706.246C531.295 705.771 529.394 705.454 527.653 705.296C523.377 704.821 519.102 703.871 514.985 703.238C510.551 702.604 505.959 701.971 501.526 700.862C500.734 700.704 500.576 700.229 500.417 699.596C499.467 695.637 498.359 691.678 497.25 687.878C496.775 686.453 496.934 684.87 497.409 683.445C498.676 678.377 499.309 673.152 500.417 668.085C501.209 664.126 502.001 660.009 502.792 655.893C503.268 653.517 503.901 651.142 504.059 648.609C504.376 648.609 504.534 648.45 504.693 648.134C505.168 646.867 504.376 645.283 505.326 644.017C505.484 643.7 505.168 643.542 504.851 643.542C504.534 643.542 504.059 643.7 504.059 644.017C504.218 645.6 503.268 647.025 503.109 648.45C503.109 649.4 502.951 650.35 502.317 651.142C500.576 650.034 498.834 648.925 497.092 647.659C493.45 645.125 489.333 643.383 485.375 641.325C486.958 637.049 488.541 632.933 490.125 628.657C490.917 626.44 491.55 624.065 491.55 621.69C492.025 621.69 492.183 621.373 492.183 620.898C492.658 618.682 491.233 617.89 489.808 616.781C485.216 613.298 480.149 610.923 474.924 608.706C467.323 605.539 459.406 603.322 451.489 601.422C450.064 601.105 448.639 600.947 447.689 602.689C442.622 612.031 437.554 621.215 432.487 630.557C431.537 630.557 431.221 631.349 430.904 631.824C427.895 638 424.412 644.017 420.928 650.034C419.662 652.409 419.82 652.567 422.67 653.359C424.095 654.467 425.362 655.418 426.787 656.526C427.895 657.318 428.212 658.109 427.262 659.376C425.045 662.86 422.828 666.343 420.612 669.827C420.295 670.46 419.82 671.41 418.87 669.827C413.169 660.326 407.152 650.984 401.294 641.641C400.344 640.058 399.393 638.475 398.285 636.891C397.652 636.099 397.652 635.624 398.443 634.833C405.411 628.499 412.378 621.532 419.503 614.406Z" fill="#E4F0E8"/>
<path d="M495.822 671.727C493.922 678.378 492.022 684.87 489.963 691.52C488.696 695.321 487.746 699.279 486.48 703.238C485.055 707.513 482.204 711.155 479.671 714.797C468.903 730.631 456.869 745.358 443.41 758.975C432.326 770.218 420.767 780.668 407.941 789.694C407.149 790.327 406.357 790.327 405.566 790.327C397.173 790.327 388.939 790.327 380.547 790.327C379.28 790.327 378.489 790.327 379.439 788.744C385.614 777.818 390.84 766.576 395.907 755.017C400.815 743.774 405.724 732.373 410.158 720.972C412.216 715.905 413.958 710.838 416.016 705.771C419.025 698.329 421.558 690.729 424.567 683.286C426.625 678.219 428.526 673.152 430.584 668.085C431.059 666.66 431.534 665.235 432.009 663.81C432.643 661.91 433.276 661.593 435.018 662.543C439.451 664.918 444.043 666.66 448.794 668.244C453.386 669.827 458.136 670.302 462.728 671.411C463.678 671.569 464.153 671.252 464.945 670.619C468.428 666.66 471.595 662.385 474.921 658.268C475.554 658.585 475.712 657.476 476.346 657.951C478.562 659.693 481.571 660.168 483.946 661.752C485.213 662.543 486.321 663.968 488.221 663.81C488.538 664.127 488.855 664.285 489.172 664.602C491.705 666.977 494.555 668.719 495.822 671.727Z" fill="#E4F0E8"/>
<path d="M652.745 714.005C651.32 717.172 649.895 720.18 648.787 723.347C648.47 724.297 649.103 725.564 649.42 726.672C651.954 734.906 654.487 742.982 656.862 751.216C658.446 756.758 660.029 762.142 661.613 767.525C662.088 769.109 661.929 769.901 659.871 770.059C653.854 770.851 647.678 771.642 641.819 773.067C639.128 773.701 636.752 773.542 634.377 771.484C629.31 766.734 623.927 762.458 618.543 758.025C615.376 755.491 613.476 751.849 611.101 748.682C606.667 742.665 602.392 736.49 597.8 730.631C596.058 728.414 596.375 725.881 595.741 723.506C595.424 722.239 595.424 720.972 595.583 719.705C595.9 714.955 594.633 710.205 594.791 705.454C598.591 705.454 602.55 705.454 606.35 705.296C607.142 705.296 607.775 705.613 607.934 706.404C608.092 707.671 609.042 708.621 609.675 709.571C614.584 717.013 620.285 718.597 627.568 717.647C628.994 717.488 630.735 717.172 632.002 716.222C634.536 714.322 637.386 712.896 638.811 709.888C638.969 709.571 639.603 709.571 639.919 709.413C640.711 709.413 641.503 709.413 642.295 709.571C645.461 711.155 649.262 712.105 652.745 714.005Z" fill="#E4F0E8"/>
<path d="M711.33 813.129C701.513 813.129 691.695 813.129 681.878 813.129C681.72 808.062 682.511 802.995 683.145 797.928C683.778 793.336 684.253 788.744 685.362 784.152C686.153 780.669 686.628 777.185 687.262 773.701C688.053 769.743 688.845 765.943 689.953 762.142C692.012 754.7 694.07 747.258 696.287 739.974C697.396 736.332 698.662 732.69 699.929 729.048C702.146 723.031 704.363 717.172 706.58 711.155C708.005 707.513 709.43 704.03 711.013 700.546C711.647 698.963 713.389 699.28 714.497 698.804C717.189 697.854 720.197 697.221 722.889 696.429C723.998 696.113 724.156 696.429 724.156 697.379C724.156 698.646 723.681 699.913 723.364 701.18C721.939 706.405 720.356 711.789 719.247 717.172C717.664 724.931 716.08 732.69 714.814 740.607C713.072 751.216 711.963 761.826 711.013 772.435C710.855 775.127 710.697 777.818 710.697 780.669C710.855 791.436 710.38 802.203 711.33 813.129Z" fill="#4ADE80"/>
<path d="M432.011 631.19C437.078 621.847 442.145 612.663 447.212 603.321C448.162 601.579 449.587 601.738 451.013 602.054C459.088 603.954 467.005 606.171 474.448 609.338C479.673 611.555 484.74 613.93 489.332 617.414C490.915 618.522 492.34 619.314 491.707 621.531C491.549 621.847 491.549 622.164 491.074 622.322C490.757 621.847 490.757 620.897 489.965 622.164C486.64 628.023 483.315 633.881 479.99 639.74C475.239 647.974 470.647 656.05 465.897 664.284C465.105 665.55 464.472 666.975 463.68 668.242C463.205 668.876 462.73 669.192 461.622 668.717C450.538 664.125 439.295 659.692 428.053 655.416C425.994 654.625 424.252 653.2 421.877 653.516C420.769 653.2 421.085 652.566 421.402 651.774C423.936 647.182 426.469 642.749 429.003 638.157C430.269 635.782 431.853 633.723 432.011 631.19ZM470.014 616.147C469.381 614.722 468.43 613.93 466.847 614.405C466.689 614.405 466.372 614.405 466.214 614.247C465.105 611.555 462.572 611.08 460.197 610.922C455.446 610.605 451.488 612.505 448.004 615.514C442.62 620.264 439.612 626.123 438.345 633.248C437.395 639.424 438.345 645.124 442.304 650.033C442.937 650.824 443.887 651.616 445.312 651.458C446.737 652.408 448.479 652.091 449.904 653.2C450.062 654.308 451.013 653.833 451.488 653.991C457.663 654.783 462.255 651.774 466.214 647.499C470.647 642.749 473.181 637.048 473.814 630.715C474.606 625.489 473.814 620.422 470.014 616.147Z" fill="#4ADE80"/>
<path d="M639.761 709.414C639.444 709.572 638.811 709.73 638.652 709.889C637.227 712.897 634.219 714.322 631.843 716.222C630.577 717.173 628.835 717.489 627.41 717.648C619.968 718.598 614.425 717.014 609.517 709.572C608.883 708.622 607.933 707.672 607.775 706.405C607.617 705.613 606.983 705.297 606.192 705.297C602.391 705.297 598.433 705.297 594.632 705.455C594.632 701.971 593.524 698.488 593.682 695.004C593.682 694.529 593.841 693.738 592.891 693.738C592.891 693.104 592.891 692.629 592.891 691.996C597.008 690.571 601.125 689.937 605.4 689.462C607.458 689.304 608.725 688.512 609.675 686.929C612.367 682.812 615.534 679.486 620.443 678.061C624.401 676.953 628.36 677.27 631.843 679.17C635.96 681.387 639.127 684.87 640.552 689.462C640.711 690.096 641.027 690.254 641.661 690.412C641.661 691.046 641.661 691.679 641.819 692.312C643.403 697.538 642.294 702.446 640.077 707.197C639.761 707.989 639.602 708.622 639.761 709.414ZM616.326 707.672C616.326 706.088 616.642 704.663 616.326 703.555C614.901 699.438 616.484 695.796 617.751 692.312C618.384 690.254 619.651 688.354 620.126 686.137C620.284 685.662 620.918 685.029 620.443 684.554C619.809 684.079 619.176 684.395 618.542 684.87C615.376 686.612 613.634 689.462 613.317 692.946C612.842 698.013 612.842 703.08 616.326 707.672Z" fill="#4ADE80"/>
<path d="M59.2681 789.535C60.5349 792.702 58.0014 794.76 57.0513 797.135C54.8345 802.202 52.4593 807.111 50.0841 812.178C49.9258 812.495 49.9258 812.811 49.9258 813.128C46.9172 813.128 43.9087 813.128 40.9001 813.128C39.475 813.128 39 812.653 39 811.228C39 797.294 39 783.359 39 769.425C40.4251 769.108 40.1084 767.525 40.5834 766.733C42.4836 762.458 44.5421 758.024 46.7589 753.749C46.9172 753.432 47.0756 752.799 47.5506 752.799C48.3423 752.799 48.0256 753.432 48.184 753.907C49.7674 760.874 51.6676 767.525 53.8844 774.334C55.4678 779.559 57.5263 784.468 59.2681 789.535Z" fill="#E4F0E8"/>
<path d="M495.824 671.727C494.399 668.718 491.708 666.977 489.491 664.76C489.174 664.443 488.857 664.285 488.541 663.968C487.749 661.593 485.215 661.276 483.474 660.168C481.098 658.743 478.565 657.476 475.873 657.001C478.882 652.092 482.048 647.5 484.424 642.275C484.582 642.116 484.899 641.958 485.057 641.8C489.016 643.858 493.133 645.442 496.775 648.134C498.516 649.4 500.258 650.509 502 651.617C501.525 654.626 500.416 657.476 499.466 660.484C498.358 664.126 497.408 668.085 495.824 671.727Z" fill="#4ADE80"/>
<path d="M652.744 714.006C649.419 712.106 645.618 711.156 642.135 709.572C645.143 703.713 646.093 697.696 644.668 691.204C649.894 691.521 654.169 693.738 657.811 697.38C658.444 698.013 658.919 699.121 659.869 697.855C659.078 701.338 657.019 704.188 655.911 707.514C654.961 709.731 654.011 711.947 652.744 714.006Z" fill="#4ADE80"/>
<path d="M235.98 672.519C233.763 670.935 234.555 669.352 235.822 667.451C239.78 661.276 243.739 654.942 247.539 648.45C248.331 647.183 248.806 647.342 249.914 647.817C254.665 650.034 254.665 650.509 251.973 654.784C248.331 660.643 244.689 666.501 241.047 672.36C241.047 672.519 241.047 672.677 240.889 672.835C240.255 673.152 239.939 673.469 240.097 674.26C239.305 674.577 238.514 674.419 237.722 674.26C237.722 673.152 236.93 672.677 235.98 672.519Z" fill="#4ADE80"/>
<path d="M229.803 690.728C229.328 691.52 229.011 692.312 228.536 693.104C224.894 699.121 221.094 705.138 217.452 711.155C217.293 711.313 217.293 711.63 217.135 711.788C214.76 713.372 213.335 710.997 211.593 710.363C210.484 709.888 210.326 709.096 211.118 707.83C215.393 701.179 219.51 694.37 223.627 687.562C224.577 686.136 225.369 685.82 226.636 687.245C227.269 688.037 228.219 688.828 229.169 689.462C229.486 689.778 229.644 690.095 229.803 690.728Z" fill="#4ADE80"/>
<path d="M220.62 651.618C220.145 646.234 225.687 641.8 230.754 641.8C231.863 641.8 233.288 641.167 233.921 642.275C234.396 643.225 233.13 644.017 232.655 644.967C230.121 649.242 227.429 653.359 224.896 657.635C223.946 659.06 223.312 659.218 222.52 657.635C221.412 655.735 220.462 653.834 220.62 651.618Z" fill="#4ADE80"/>
<path d="M210.488 634.357C215.08 629.606 220.78 628.181 227.114 628.815C229.173 628.973 230.914 630.081 232.498 631.507C232.815 631.823 233.29 631.982 233.131 632.457C232.973 632.932 232.498 632.932 232.023 632.932C228.698 632.773 225.372 632.773 221.889 632.457C218.089 631.982 214.288 633.248 210.963 635.465C209.855 635.624 210.171 634.99 210.488 634.357Z" fill="#E4F0E8"/>
<path d="M241.997 707.67C241.838 712.262 237.405 717.171 232.496 717.013C231.071 717.013 231.071 716.379 231.704 715.429C234.238 711.471 236.613 707.512 239.146 703.395C239.78 702.287 240.571 702.445 240.888 703.395C241.205 705.137 242.313 706.245 241.997 707.67Z" fill="#4ADE80"/>
<path d="M227.429 720.657C230.913 721.607 234.396 720.815 237.88 720.34C238.355 720.34 238.672 719.865 238.988 720.498C239.305 721.132 238.672 721.132 238.355 721.448C236.138 723.349 233.605 723.824 230.913 723.349C229.488 723.032 227.904 723.349 226.638 722.398C226.163 722.082 225.688 721.607 225.688 721.132C226.004 720.34 226.796 720.657 227.429 720.657Z" fill="#E4F0E8"/>
<path d="M432.011 631.19C431.695 633.724 430.269 635.782 429.003 637.841C426.628 642.433 423.936 646.867 421.402 651.459C421.085 652.092 420.769 652.884 421.877 653.2C422.036 653.517 422.036 653.675 422.194 653.992C419.502 653.359 419.185 653.042 420.452 650.667C423.936 644.65 427.419 638.633 430.428 632.457C430.745 631.982 431.22 631.19 432.011 631.19Z" fill="#E4F0E8"/>
<path d="M756.933 422.652C755.983 422.652 755.825 422.969 756.3 423.76C756.616 424.235 757.091 424.552 756.933 425.185C755.033 424.235 754.399 422.177 753.291 420.752C751.074 417.743 748.541 414.893 746.482 411.726C746.166 411.251 745.691 410.934 746.324 410.143C750.124 414.101 753.608 418.376 756.933 422.652Z" fill="#196432"/>
<path d="M552.353 486.463C550.928 487.73 549.028 487.889 547.445 488.68C545.703 489.63 543.803 490.105 541.744 490.422C545.069 488.047 548.553 486.147 552.195 484.722C552.195 485.672 551.245 485.672 550.77 486.305C551.403 486.305 551.878 486.463 552.353 486.463Z" fill="#196432"/>
<path d="M475.874 657.001C478.565 657.476 481.257 658.743 483.474 660.168C485.216 661.276 487.591 661.593 488.541 663.968C486.641 664.127 485.533 662.701 484.266 661.91C481.891 660.326 478.882 659.851 476.665 658.109C476.032 657.634 475.715 658.743 475.24 658.426C475.399 657.951 475.557 657.476 475.874 657.001Z" fill="#E4F0E8"/>
<path d="M449.905 467.937C449.43 469.362 448.005 468.887 447.055 469.204C445.313 469.996 443.571 470.471 441.829 471.104C441.354 471.262 440.879 471.262 440.404 470.787C443.888 469.362 447.055 467.145 450.855 466.195C450.697 466.829 450.063 466.987 449.747 467.304C448.797 467.937 449.747 467.779 449.905 467.937Z" fill="#196432"/>
<path d="M552.672 484.563C555.522 482.346 558.847 481.238 562.014 479.654C563.756 478.704 565.498 477.596 567.556 477.279C567.398 477.596 567.24 477.913 566.923 478.071C562.648 480.13 558.372 482.346 553.939 484.405C553.464 484.563 552.989 484.563 552.672 484.563Z" fill="#196432"/>
<path d="M370.575 456.854C372.95 457.805 374.533 459.705 376.275 461.446C373.9 460.655 371.683 459.863 369.941 457.963C370.258 457.805 370.575 457.488 370.575 456.854Z" fill="#196432"/>
<path d="M869.041 592.397C869.674 592.08 870.941 594.772 870.783 591.922C872.208 593.347 872.683 595.089 873 597.306C871.258 595.88 869.674 594.455 869.041 592.397Z" fill="#196432"/>
<path d="M210.486 634.357C210.169 634.99 210.011 635.624 210.961 635.624C210.961 636.257 210.486 636.416 210.011 636.732C209.694 637.049 209.219 637.366 208.744 636.891C208.269 636.415 208.744 635.94 209.061 635.624C209.377 635.149 209.694 634.674 210.169 634.357C210.169 634.199 210.327 634.199 210.486 634.357C210.327 634.357 210.327 634.199 210.486 634.357Z" fill="#4ADE80"/>
<path d="M870.785 591.763C869.519 590.338 868.569 588.755 868.41 586.854C869.677 588.121 870.469 589.863 870.785 591.763Z" fill="#196432"/>
<path d="M237.723 674.261C238.514 674.419 239.306 674.577 240.098 674.261C239.306 675.686 238.673 675.686 237.723 674.261Z" fill="#196432"/>
<path d="M235.98 672.518C236.931 672.676 237.722 673.151 237.722 674.259C236.772 674.101 236.139 673.468 235.98 672.518Z" fill="#196432"/>
<path d="M240.098 674.26C240.098 673.627 240.256 673.152 240.889 672.835C241.206 673.627 241.048 674.26 240.098 674.26Z" fill="#196432"/>
<path d="M868.25 586.378C867.617 586.062 867.3 585.745 867.458 584.953C868.25 585.27 868.408 585.745 868.25 586.378Z" fill="#196432"/>
<path d="M568.029 477.28C568.188 476.488 568.821 476.488 569.454 476.488C569.296 477.28 568.821 477.438 568.029 477.28Z" fill="#196432"/>
<path d="M868.25 591.446C868.725 591.605 869.042 591.921 869.042 592.396C868.408 592.396 868.25 592.08 868.25 591.446Z" fill="#196432"/>
<path d="M867.457 590.655C867.774 590.655 868.249 590.655 868.249 591.13C867.774 591.13 867.457 591.13 867.457 590.655Z" fill="#196432"/>
<path d="M443.254 84.2676C447.529 85.5343 451.171 87.9095 454.813 90.1263C468.431 98.5186 479.832 109.761 490.599 121.479C497.724 129.237 504.375 137.313 510.709 145.547C518.626 155.681 526.068 166.29 533.352 176.741C541.744 188.775 549.503 201.284 557.262 213.794C564.388 225.353 571.038 237.229 577.53 249.104C582.756 258.605 587.506 268.264 592.415 277.923C598.907 291.066 604.924 304.367 610.466 317.984C612.999 324.476 615.375 330.969 617.275 337.619C617.591 338.727 617.433 339.361 616.008 339.678C610.941 341.261 605.716 342.844 600.648 344.428C593.998 346.645 587.506 349.02 580.855 351.553C574.047 354.087 567.396 357.095 560.904 360.104C546.495 366.913 532.719 374.672 518.943 382.431C509.442 387.814 499.941 393.356 490.124 398.265C478.881 403.965 467.481 409.507 455.921 414.575C449.588 417.266 443.412 420.117 437.078 422.65C430.586 425.342 424.253 428.509 417.919 431.517C416.335 432.151 415.069 432.151 413.485 431.359C400.026 424.709 387.833 416.316 376.749 406.341C363.765 394.623 352.997 381.322 345.555 365.329C342.863 359.471 340.647 353.453 338.905 347.12C337.955 344.111 337.48 340.944 336.846 337.936C336.53 336.036 336.53 334.294 337.321 332.71C339.855 326.535 342.388 320.201 344.764 313.867C349.514 301.516 354.898 289.324 360.281 276.973C365.665 264.622 371.365 252.43 377.224 240.237C382.766 228.52 388.467 216.802 394.325 205.243C400.976 191.942 407.785 178.799 414.752 165.657C420.611 155.048 426.153 144.122 432.011 133.513C438.662 121.637 445.471 109.761 452.28 98.0436C453.071 96.7768 452.913 95.9851 451.963 94.8767C449.429 91.8681 447.054 88.7013 444.679 85.5344C443.729 85.6927 443.096 85.2176 443.254 84.2676ZM342.863 345.061C342.23 343.003 340.488 341.578 339.538 339.678C339.38 339.202 339.063 338.886 338.588 339.202C338.43 339.361 338.271 339.677 338.43 339.994C339.38 342.053 339.855 344.586 342.072 346.011C342.23 347.278 343.18 348.07 343.813 349.02C347.614 355.354 351.889 361.371 356.481 367.388C362.656 375.463 369.465 382.906 376.907 389.714C384.191 396.523 392.109 402.382 400.501 407.449C406.201 410.933 412.377 413.783 418.552 416.316C420.452 417.108 422.511 418.058 425.361 418.216C393.85 397.473 365.507 374.355 342.863 345.061ZM476.031 257.972C477.298 258.922 478.565 260.03 479.99 260.98C484.582 264.305 489.807 266.522 495.033 268.422C499.941 270.164 504.85 271.906 510.075 272.856C512.767 273.331 515.459 273.964 517.993 274.598C522.268 275.706 526.702 276.181 530.977 276.973C533.669 277.448 536.361 277.448 539.052 278.081C540.636 278.398 542.061 278.24 543.328 277.448C547.761 274.756 552.037 272.223 555.837 268.739C560.746 264.305 565.179 259.397 567.238 252.905C567.871 250.688 567.713 250.529 565.496 250.846C557.579 251.955 549.661 253.221 541.744 254.013C535.41 254.646 529.077 255.438 522.901 255.596C516.409 255.913 509.917 256.863 503.425 256.705C494.716 256.547 486.165 257.497 477.456 257.497C476.981 257.497 476.506 257.338 476.031 257.972ZM458.138 257.813C457.188 257.338 456.397 257.497 455.763 257.497C450.538 257.338 445.471 257.497 440.245 257.18C430.428 256.547 420.611 256.23 410.635 255.755C410.318 255.755 409.843 255.755 409.526 255.755C402.718 254.488 395.592 254.646 388.783 253.38C386.408 252.905 386.25 253.38 386.883 255.755C389.1 264.939 394.325 272.381 402.084 277.606C402.718 278.081 403.509 278.556 404.459 278.24C407.626 277.29 410.793 276.815 413.96 276.181C419.661 275.073 425.203 273.331 430.586 271.431C440.245 268.106 449.588 263.989 458.138 257.813Z" fill="#08110E"/>
<path d="M653.851 118.47C648.15 99.7856 641.183 81.8927 632.791 64.3164C643.083 69.5418 657.651 106.436 653.851 118.47Z" fill="#08110E"/>
<path d="M627.727 91.0771C637.069 93.6107 654.012 115.146 653.062 123.063C644.194 112.929 635.802 102.478 627.727 91.0771Z" fill="#08110E"/>
<path d="M70.669 765.625C71.3024 760.4 72.2525 755.333 73.2025 750.107C73.9942 746.149 74.4693 742.032 75.1027 737.915C75.736 733.956 76.6861 729.839 77.4778 725.881C78.1112 722.239 78.7446 718.439 79.378 714.638C79.853 712.105 80.4864 709.413 80.6447 706.879C80.8031 704.504 82.2282 703.712 83.97 704.663C86.1868 705.771 88.562 705.454 90.7788 705.929C94.2624 706.879 98.0626 707.196 101.546 707.988C103.288 708.305 103.921 707.513 104.396 706.088C106.138 699.912 108.197 693.737 110.414 687.561C110.73 686.611 111.047 685.661 111.205 684.869C111.364 682.494 113.422 682.019 114.847 681.069C115.956 680.278 117.222 679.644 118.489 679.169C123.714 677.269 125.298 672.519 127.515 668.243C138.441 647.342 149.366 626.282 160.45 605.381C162.509 601.58 166.151 598.572 169.001 595.246C178.502 584.321 188.002 573.553 197.661 562.627C203.362 556.135 209.221 549.643 214.921 543.151C223.947 532.859 233.131 522.566 242.156 512.274C244.848 509.265 247.698 506.257 250.232 503.09C253.557 498.815 258.624 497.231 263.058 494.381C262.899 496.123 261.791 497.073 260.999 498.023C253.715 507.048 247.54 516.866 240.89 526.525C234.397 535.867 227.905 545.21 221.255 554.394C210.804 568.803 200.353 583.212 189.903 597.622C182.302 607.914 174.543 618.048 166.943 628.34C156.333 642.591 145.724 657.001 134.957 671.252C127.831 680.753 120.548 690.253 113.739 700.071C104.555 713.213 95.6875 726.672 87.6119 740.607C82.3865 749.632 77.1611 758.658 71.9358 767.684C71.7774 767.842 71.7774 768.159 71.7774 768.317C70.9857 768.475 70.8274 768.951 70.9857 769.742C69.7189 768.317 70.9857 766.892 70.669 765.625Z" fill="#08110E"/>
<path d="M70.6671 765.626C70.9838 766.893 69.5587 768.318 70.8255 769.743C70.9838 770.851 69.8754 771.485 69.4004 772.276C70.1921 770.06 69.242 767.684 70.6671 765.626Z" fill="#196432"/>
<path d="M70.9888 769.583C70.8304 768.95 70.9888 768.317 71.7805 768.158C71.7805 768.95 71.7805 769.583 70.9888 769.583Z" fill="#196432"/>
<path d="M641.66 690.253C641.185 690.095 640.868 689.937 640.552 689.303C639.127 684.553 635.96 681.228 631.843 679.011C628.359 677.111 624.401 676.794 620.442 677.903C615.533 679.328 612.208 682.653 609.674 686.77C608.724 688.353 607.458 689.145 605.399 689.303C601.124 689.778 597.007 690.412 592.89 691.837C592.573 690.728 593.207 690.253 593.998 690.253C595.107 690.095 596.215 689.462 597.324 689.462C599.857 689.145 602.391 688.037 605.082 688.512C606.824 688.828 607.774 687.72 608.566 686.453C611.1 682.178 614.583 679.011 619.017 677.269C623.925 675.369 628.834 676.002 633.426 678.694C637.068 680.911 639.918 683.92 641.502 688.037C641.818 688.828 642.452 689.462 642.768 690.253C642.452 690.253 642.135 690.253 641.66 690.253Z" fill="#E4F0E8"/>
<path d="M641.659 690.254C641.976 690.254 642.451 690.254 642.768 690.096C643.084 690.096 643.401 690.254 643.876 690.254C643.876 690.729 643.876 691.046 644.509 691.046C646.093 697.538 645.143 703.555 641.976 709.414C641.184 709.414 640.392 709.414 639.601 709.255C639.442 708.464 639.759 707.672 640.076 707.039C642.134 702.288 643.401 697.38 641.818 692.154C641.659 691.679 641.818 691.046 641.659 690.254Z" fill="#4ADE80"/>
<path d="M644.51 691.204C643.877 691.204 643.877 690.887 643.877 690.412C644.352 690.412 644.51 690.729 644.51 691.204Z" fill="#4ADE80"/>
<path d="M466.212 614.407C466.37 614.407 466.687 614.407 466.845 614.565C467.479 615.515 468.112 616.465 469.062 617.099C468.745 617.891 469.695 618.207 470.012 618.841C471.595 623.274 472.229 627.708 471.12 632.458C470.012 636.892 468.429 640.851 465.737 644.334C461.778 649.56 456.869 653.201 449.902 653.36C448.635 652.251 446.735 652.726 445.31 651.618C444.043 650.351 442.935 648.768 441.827 647.343C439.293 644.176 439.927 640.217 438.976 636.734C438.818 635.784 439.927 634.992 439.768 633.883C439.293 630.717 440.877 628.025 442.143 625.333C444.043 621.057 447.21 617.574 451.327 615.04C455.444 612.507 459.72 611.398 464.312 613.774C464.787 613.932 465.262 614.565 466.212 614.407Z" fill="#E4F0E8"/>
<path d="M449.904 653.201C456.871 653.043 461.78 649.559 465.739 644.175C468.431 640.692 470.014 636.575 471.122 632.3C472.231 627.549 471.598 623.116 470.014 618.682C469.856 618.049 468.906 617.732 469.064 616.94C469.222 616.465 469.381 616.148 469.856 616.148C473.656 620.424 474.448 625.491 473.973 630.874C473.339 637.208 470.806 642.909 466.372 647.659C462.414 651.934 457.822 654.785 451.646 654.151C451.013 653.993 450.063 654.309 449.904 653.201Z" fill="#08110E"/>
<path d="M466.214 614.407C465.423 614.723 464.948 613.931 464.314 613.615C459.722 611.24 455.605 612.348 451.33 614.882C447.213 617.415 444.204 620.899 442.146 625.174C440.879 627.866 439.296 630.558 439.771 633.725C439.929 634.833 438.821 635.625 438.979 636.575C439.929 640.058 439.296 644.017 441.829 647.184C442.938 648.609 444.046 650.192 445.313 651.459C444.046 651.618 443.096 650.826 442.304 650.034C438.346 645.125 437.237 639.425 438.346 633.25C439.454 626.282 442.621 620.265 448.005 615.515C451.488 612.506 455.447 610.606 460.197 610.923C462.572 611.24 464.948 611.715 466.214 614.407Z" fill="#4ADE80"/>
<path d="M470.014 616.148C469.539 616.148 469.223 616.464 469.223 616.939C468.114 616.464 467.639 615.356 467.006 614.406C468.431 613.931 469.381 614.722 470.014 616.148Z" fill="#196432"/>
<path d="M616.324 707.671C612.84 703.079 612.84 698.012 613.157 692.945C613.474 689.462 615.057 686.611 618.382 684.87C619.016 684.553 619.808 684.236 620.283 684.553C620.916 685.028 620.124 685.503 619.966 686.137C619.491 688.353 618.224 690.253 617.591 692.312C616.482 695.954 614.741 699.596 616.166 703.554C616.641 704.663 616.324 706.088 616.324 707.671Z" fill="#E4F0E8"/>
<path d="M342.865 345.061C342.231 345.061 341.915 345.378 341.915 346.012C339.698 344.586 339.223 342.211 338.273 339.994C338.114 339.836 338.273 339.361 338.431 339.203C338.906 338.886 339.223 339.203 339.381 339.678C340.489 341.578 342.073 343.003 342.865 345.061Z" fill="#196432"/>
<path d="M485 641.5C489.833 643.833 500.1 649.2 502.5 652" stroke="black"/>
<path d="M292.008 597.433C293.295 596.039 292.65 596.761 294.178 594.975C294.488 594.611 299.241 589.023 295.6 593.794C277.967 616.894 257.474 637.641 238.789 659.86C227.983 672.71 217.3 686.416 210.468 701.896C209.034 705.144 209.499 707.472 208.853 710.766C208.558 712.27 208.064 713.597 207.262 714.911C206.904 715.498 206.475 716.045 206.009 716.55C205.226 717.4 204.483 718.001 205.069 716.189C205.824 713.851 209.311 706.637 209.769 705.656C215.042 694.351 220.235 682.969 226.111 671.96C236.44 652.607 249.78 635.13 260.241 615.872C262.828 611.109 266.434 605.031 267.809 599.602C268.623 596.39 262.731 603.897 260.53 606.375C245.043 623.814 229.769 641.422 214.156 658.751C208.297 665.253 199.749 674.798 193.957 681.408C187.63 688.63 180.818 695.866 175.615 703.993C174.871 705.155 173.268 707.496 174.554 707.994C179.013 709.72 193.2 702.246 195.355 701.173C226.394 685.719 254.139 662.843 275.57 635.612C276.327 634.65 276.99 633.616 277.739 632.648C278.035 632.265 278.416 631.174 278.703 631.563C279.121 632.128 278.61 632.968 278.487 633.66C277.453 639.448 275.919 645.345 274.293 650.942C267.812 673.252 258.021 694.011 249.635 715.586C248.806 717.72 245.74 723.276 247.755 722.19C248.74 721.66 249.161 720.446 249.78 719.515C252.559 715.335 256.883 707.908 259.132 703.968C264.132 695.208 268.976 686.356 272.726 676.973C273.867 674.118 276.155 669.156 276.269 665.838C276.318 664.423 274.694 668.189 273.931 669.381C267.111 680.024 259.397 689.936 250.937 699.341C243.765 707.313 237.331 713.537 229.63 720.792C227.256 723.029 219.588 728.825 222.616 727.614C224.386 726.905 227.319 725.076 228.497 724.336C237.174 718.883 245.332 712.667 253.106 705.993C262.99 697.508 275.245 687.762 280.608 675.455C281.813 672.688 282.436 669.828 283.91 667.187C285.498 664.343 288.216 660.281 284.175 667.115C273.366 685.393 259.373 701.966 245.104 717.611C242.641 720.311 240.12 722.957 237.56 725.565C235.134 728.036 231.925 733.088 228.931 731.35C227.524 730.533 226.911 728.767 226.207 727.3C222.948 720.507 220.563 713.328 217.771 706.331C211.082 689.567 200.837 667.895 207.455 649.52C210.776 640.298 220.065 632.85 226.93 626.212C228.498 624.696 230.612 623.55 231.558 621.584C232.701 619.209 226.178 621.706 223.724 622.669C213.232 626.785 200.574 637.935 211.336 649.062C224.61 662.787 247.786 660.625 264.82 658.607C266.068 658.459 301.386 652.566 301.457 653.256C301.587 654.525 299.22 657.309 298.998 657.57C294.521 662.845 288.722 666.661 283.187 670.706C275.701 676.177 268.169 681.578 261.639 688.109" stroke="#4ADE80" stroke-width="31" stroke-linecap="round"/>
<path d="M195.395 722.864C194.14 725.708 190.939 730.602 192.92 733.904C195.869 738.819 206.033 738.475 210.813 738.727C214.648 738.928 218.934 739.197 213.541 735.046C199.978 724.607 184.496 720.38 169.127 713.728" stroke="#4ADE80" stroke-width="31" stroke-linecap="round"/>
<path d="M240.646 672.946C230.797 668.354 224.089 663.019 220.519 656.942C217.01 650.893 216.802 644.397 219.893 637.454L220.3 636.54L235.979 643.851L235.572 644.765C234.46 647.262 234.905 649.786 236.907 652.338C238.935 654.828 242.427 657.228 247.381 659.539C256.203 663.652 261.359 664.034 262.851 660.684L263.135 660.045C263.678 658.827 263.494 657.601 262.584 656.368C261.701 655.073 259.994 653.579 257.465 651.885L242.522 641.938C236.457 637.86 232.39 633.72 230.321 629.519C228.312 625.346 228.324 620.976 230.358 616.408L230.764 615.494C233.367 609.648 237.865 606.266 244.256 605.348C250.736 604.398 258.507 606.036 267.57 610.262C277.116 614.713 283.641 619.889 287.143 625.788C290.733 631.654 291.064 637.876 288.136 644.454L287.81 645.184L272.222 637.915L272.547 637.185C274.527 632.739 270.834 628.332 261.469 623.965C257.36 622.049 254.072 620.994 251.605 620.8C249.165 620.544 247.619 621.148 246.969 622.609L246.684 623.249C246.223 624.284 246.401 625.36 247.217 626.476C248.121 627.56 249.807 628.934 252.276 630.6L267.219 640.547C273.586 644.766 277.777 649.037 279.792 653.36C281.895 657.65 281.889 662.171 279.774 666.921L279.367 667.835C276.656 673.925 271.896 677.405 265.088 678.276C258.34 679.174 250.192 677.398 240.646 672.946Z" fill="#041006"/>
<rect x="266" y="589" width="12" height="94" transform="rotate(30 266 589)" fill="#041006"/>
<rect x="280" y="597" width="12" height="94" transform="rotate(30 280 597)" fill="#041006"/>
<path d="M244.211 599.278C244.393 599.499 244.457 599.905 244.528 600.162C244.831 601.256 245.098 602.353 245.51 603.412C246.124 604.993 246.931 606.51 247.771 607.981" stroke="#041006" stroke-width="3" stroke-linecap="round"/>
<path d="M241.969 602.795C242.172 604.47 242.484 605.99 243.461 607.405C244.134 608.38 244.951 609.153 245.837 609.915" stroke="#041006" stroke-width="3" stroke-linecap="round"/>
<path d="M242.496 601.345C243.241 603.724 243.927 606.202 245.089 608.421" stroke="#041006" stroke-width="3" stroke-linecap="round"/>
<path d="M295.111 630.798C294.552 631.005 294.038 631.37 293.538 631.684C293.162 631.92 292.803 632.186 292.409 632.394C291.69 632.773 290.91 633.038 290.132 633.266C287.991 633.891 285.83 634.208 283.619 634.443" stroke="#041006" stroke-width="3" stroke-linecap="round"/>
<path d="M288.723 635.858C289.352 635.764 289.882 635.561 290.459 635.274C291.696 634.66 292.84 633.887 293.997 633.137C294.651 632.713 295.373 632.317 295.986 631.827C296.166 631.683 296.172 631.615 296.269 631.441" stroke="#041006" stroke-width="3" stroke-linecap="round"/>
<path d="M289.58 637.444C292.083 636.643 294.29 635.284 296.569 634.014" stroke="#041006" stroke-width="3" stroke-linecap="round"/>
<path d="M606 690.538C602 690.118 595.667 692.115 593 693.166L590 661.628L645 659C650 671.265 660 696.215 660 697.897C660 699.579 659.333 700 659 700C654.5 694.744 650.5 693.167 646 692.641C642.4 692.221 640.833 691.064 640.5 690.538C637 683.179 634.5 678.974 625.5 677.923C618.3 677.082 612.167 683.53 610 686.859C609.6 688.962 607.167 690.188 606 690.538Z" fill="#E4F0E8"/>
<path d="M640.021 692.979C641.114 693.217 642.114 693.56 642.879 694.427C643.21 694.803 643.379 695.099 643.58 695.548C643.727 695.875 643.765 696.147 643.844 696.481" stroke="#4ADE80" stroke-width="3" stroke-linecap="round"/>
<path d="M641.316 691.82C641.428 691.894 641.552 691.942 641.656 692.025" stroke="#4ADE80" stroke-linecap="round"/>
<path d="M644.203 692.932C644.413 692.991 644.626 693.038 644.84 693.078C644.902 693.09 644.929 693.098 644.983 693.13" stroke="#4ADE80" stroke-linecap="round"/>
<path d="M643.904 692.832C644.594 692.942 645.279 693.068 645.961 693.215" stroke="#4ADE80" stroke-linecap="round"/>
<path d="M639.311 709C640.768 708.918 642.216 708.887 643.674 708.955" stroke="#4ADE80" stroke-linecap="round"/>
<path d="M644.993 693.567C644.867 694.731 645.01 695.887 645.045 697.052C645.067 697.765 645.077 698.485 645.021 699.197C644.931 700.346 644.689 701.478 644.382 702.587C644.122 703.526 643.785 704.434 643.453 705.348C643.294 705.786 643.155 706.232 642.969 706.659C642.732 707.204 642.386 707.6 641.925 707.967C641.842 708.033 641.755 708.095 641.672 708.162C641.591 708.227 641.881 708.181 641.986 708.177C642.612 708.153 643.529 708.154 643.902 707.541C643.985 707.405 643.842 707.335 643.728 707.296C643.392 707.178 643.024 707.184 642.678 707.243C642.518 707.269 642.261 707.302 642.122 707.404C642.1 707.42 642.171 707.429 642.198 707.432" stroke="#4ADE80" stroke-linecap="round"/>
<path d="M629.355 716.842C629.97 716.758 630.607 716.503 631.165 716.234C631.681 715.985 632.204 715.706 632.7 715.419C633.868 714.743 635.059 714.03 636.098 713.165C636.573 712.769 637.033 712.299 637.386 711.791C637.827 711.156 638.123 710.435 638.696 709.903C639.292 709.349 640.031 709.115 640.844 709.111C641.441 709.109 642.048 709.231 642.639 709.306C643.194 709.376 643.741 709.475 644.288 709.591" stroke="#4ADE80" stroke-linecap="round"/>
<path d="M620.808 684.814C620.513 685.12 620.385 685.502 620.236 685.893C619.98 686.561 619.728 687.227 619.522 687.912C619.241 688.844 618.98 689.771 618.599 690.669C618.118 691.802 617.582 692.911 617.107 694.047C616.668 695.097 616.214 696.172 615.912 697.271C615.581 698.477 615.612 699.846 615.754 701.076C615.985 703.069 616.951 704.759 618.165 706.318C618.508 706.758 618.869 707.24 619.335 707.559C619.509 707.678 619.68 707.755 619.875 707.706" stroke="#4ADE80" stroke-linecap="round"/>
<path d="M466.006 614.147C465.774 612.831 463.977 612.257 462.92 611.881C461.816 611.488 460.595 611.033 459.404 611.033" stroke="#4ADE80" stroke-linecap="round"/>
<path d="M442.045 650.062C443.085 650.922 444.134 651.724 445.31 652.387" stroke="#4ADE80" stroke-linecap="round"/>
<path d="M438.816 636.381C439.047 635.713 439.467 635.072 439.561 634.368C439.676 633.514 439.547 632.648 439.629 631.792C439.889 629.048 441.261 626.659 442.474 624.25C443.111 622.985 443.987 621.854 444.766 620.675C445.498 619.565 446.471 618.628 447.363 617.649C448.789 616.082 450.63 615.174 452.375 614.033C453.419 613.349 454.675 613.003 455.867 612.682C457.612 612.214 459.527 612.245 461.309 612.486C462.857 612.695 464.256 613.467 465.691 614.033C466.486 614.346 467.115 614.269 467.931 614.069C468.865 613.84 469.795 613.582 470.732 613.368C471.603 613.169 472.475 613.164 473.363 613.148" stroke="#4ADE80" stroke-linecap="round"/>
<path d="M464.969 613.699C465.584 614.023 466.198 614.355 466.738 614.796C467.012 615.02 467.246 615.292 467.479 615.557C467.868 616 468.248 616.451 468.636 616.894C468.675 616.938 468.712 616.983 468.748 617.029C468.756 617.039 468.779 617.081 468.795 617.086C468.835 617.097 468.813 617.003 468.817 616.961C468.834 616.796 468.855 616.634 468.921 616.479C469.096 616.074 469.463 615.859 469.866 615.733C470.125 615.653 470.386 615.591 470.656 615.569" stroke="#4ADE80" stroke-linecap="round"/>
<path d="M468.855 615.296C468.855 615.117 468.861 614.898 468.742 614.748C468.622 614.597 468.431 614.541 468.251 614.514C468.157 614.5 467.782 614.482 467.672 614.559C467.638 614.582 467.636 614.651 467.663 614.683C467.726 614.756 467.82 614.799 467.909 614.837C468.168 614.948 468.427 614.992 468.702 615.035C468.915 615.068 468.885 615.03 468.748 615.068C468.69 615.085 468.395 615.146 468.386 615.277C468.375 615.435 468.756 615.51 468.789 615.515C468.973 615.544 469.204 615.534 469.368 615.425C469.404 615.402 469.554 615.235 469.477 615.153C469.394 615.064 469.164 615.208 469.132 615.229C468.999 615.312 468.792 615.492 468.688 615.614C468.67 615.635 468.553 615.77 468.598 615.839C468.648 615.915 468.789 615.838 468.845 615.821" stroke="#4ADE80" stroke-linecap="round"/>
<path d="M446.671 652.502C446.259 652.279 445.85 652.054 445.455 651.801C444.865 651.424 444.501 651.188 444.019 650.673C443.513 650.132 443.15 649.522 442.753 648.901C441.234 646.53 439.59 644.137 438.983 641.344C438.688 639.987 438.626 638.524 438.797 637.147C438.957 635.853 439.377 634.633 439.793 633.404" stroke="#4ADE80" stroke-linecap="round"/>
<path d="M476.4 657.902C477.073 658.688 477.9 659.106 478.82 659.535C480.482 660.312 482.093 661.197 483.728 662.028C484.635 662.488 485.435 662.999 486.161 663.717C486.524 664.076 486.878 664.443 487.212 664.828" stroke="#E4F0E8" stroke-linecap="round"/>
<path d="M504.428 643.35C504.441 643.807 504.449 644.264 504.467 644.721C504.477 644.948 504.503 646.313 504.676 646.688C504.914 647.204 505.337 645.711 505.408 645.147C505.58 643.787 504.62 645.195 504.465 645.457C504.267 645.789 503.797 646.581 504.183 646.581C504.534 646.581 505.107 645.645 505.169 645.538C505.288 645.333 505.393 645.113 505.448 644.882C505.464 644.815 505.433 644.664 505.369 644.69C505.219 644.753 505.132 644.916 505.042 645.051C505.02 645.085 504.138 646.666 504.346 646.73C504.483 646.772 504.826 645.792 504.867 645.648C504.935 645.416 504.632 646.071 504.529 646.29" stroke="#E4F0E8" stroke-linecap="round"/>
<path d="M503.312 642.082C506.104 643.263 508.7 644.906 511.172 646.645" stroke="#E4F0E8" stroke-linecap="round"/>
<path d="M499.629 645.604C501.48 646.793 503.318 647.933 505.307 648.884C506.397 649.404 507.511 649.824 508.629 650.271" stroke="#E4F0E8" stroke-linecap="round"/>
<path d="M501.459 646.538C503.51 647.651 505.752 648.434 507.965 649.16C508.059 649.191 508.339 649.285 508.251 649.239C507.743 648.976 507.175 648.847 506.633 648.662C505.315 648.214 503.868 647.865 502.629 647.212C502.544 647.167 502.333 647.033 502.426 647.007C502.624 646.95 502.84 647.042 503.04 647.094C503.434 647.197 503.819 647.332 504.202 647.472C504.629 647.627 505.045 647.81 505.467 647.978C505.71 648.074 505.94 648.22 506.197 648.264C506.316 648.284 506.01 648.113 505.907 648.052C505.131 647.599 504.406 647.259 503.608 646.837C503.358 646.704 503.091 646.597 502.866 646.426C502.607 646.229 503.515 646.497 503.824 646.596C505.089 647 504.886 646.987 506.077 647.418C506.864 647.702 506.851 647.61 506.336 646.986C506.113 646.716 505.879 646.454 505.654 646.185C505.357 645.83 504.474 644.803 504.247 644.339C503.859 643.545 504.617 643.363 505.224 643.553C506.402 643.921 504.792 645.135 504.185 644.542C504.128 644.487 504.116 644.371 504.16 644.306C504.341 644.041 505.045 643.946 505.224 643.914C506.107 643.756 506.992 643.76 507.882 643.7" stroke="#E4F0E8" stroke-linecap="round"/>
<ellipse cx="454.987" cy="632.735" rx="16" ry="21.5249" transform="rotate(32.0624 454.987 632.735)" fill="#E4F0E8"/>
<path d="M475.5 657.5C479.667 658 489.1 661.2 495.5 672" stroke="#4ADE80"/>
<path d="M546 673H591L590.5 727.5L549.5 724.5L546 673Z" fill="#E4F0E8"/>
<path d="M548.672 722.582C548.838 722.987 549.001 723.395 549.169 723.8C549.23 723.949 549.302 724.092 549.369 724.239C549.383 724.27 549.395 724.302 549.411 724.333C549.414 724.339 549.414 724.319 549.414 724.312C549.413 724.299 549.415 724.155 549.432 724.162C549.454 724.17 549.467 724.25 549.47 724.264C549.479 724.302 549.487 724.341 549.492 724.381C549.496 724.415 549.427 724.397 549.41 724.385" stroke="#E4F0E8" stroke-width="0.2" stroke-linecap="round"/>
<path d="M432.122 630.003C431.674 630.891 431.225 631.777 430.792 632.672C430.576 633.117 430.395 633.56 430.199 634.01" stroke="#E4F0E8" stroke-width="0.2" stroke-linecap="round"/>
<path d="M432.323 630.367C432.216 630.583 432.093 630.791 431.978 631.002C431.842 631.255 431.736 631.508 431.615 631.763" stroke="#E4F0E8" stroke-width="0.2" stroke-linecap="round"/>
<path d="M432.235 630.523C432.037 630.698 431.855 630.891 431.65 631.057C431.637 631.068 431.596 631.099 431.603 631.082C431.617 631.047 431.649 631.022 431.675 630.994C431.712 630.952 431.752 630.912 431.792 630.872C431.827 630.836 431.873 630.806 431.898 630.762C431.905 630.749 431.913 630.705 431.906 630.718C431.894 630.743 431.885 630.77 431.874 630.796C431.788 630.997 431.766 631.047 431.672 631.256C431.651 631.303 431.586 631.443 431.607 631.396C431.628 631.352 431.649 631.307 431.67 631.263C431.696 631.208 431.724 631.154 431.749 631.099C431.766 631.064 431.786 631.031 431.796 630.993C431.811 630.943 431.72 631.066 431.685 631.105C431.653 631.14 431.51 631.31 431.436 631.325C431.415 631.329 431.399 631.299 431.393 631.278C431.383 631.244 431.406 631.205 431.393 631.173C431.387 631.157 431.36 631.151 431.345 631.159C431.288 631.19 431.171 631.351 431.206 631.296C431.236 631.246 431.274 631.2 431.309 631.153C431.366 631.075 431.42 630.997 431.479 630.921C431.503 630.89 431.554 630.795 431.558 630.834C431.563 630.89 431.511 630.936 431.486 630.985C431.43 631.093 431.371 631.198 431.314 631.305C431.214 631.493 431.129 631.654 431.034 631.84C431.019 631.87 431.004 631.9 430.989 631.931C430.988 631.933 430.986 631.939 430.987 631.937C430.99 631.931 430.999 631.911 430.996 631.918" stroke="#E4F0E8" stroke-width="0.2" stroke-linecap="round"/>
<path d="M421.389 651.579C421.374 651.647 421.342 651.714 421.321 651.781C421.273 651.937 421.216 652.092 421.18 652.251C421.129 652.477 421.102 652.71 421.106 652.942C421.111 653.236 421.174 653.523 421.242 653.808" stroke="#E4F0E8" stroke-width="0.2" stroke-linecap="round"/>
<path d="M421.365 651.639C421.513 651.462 421.621 651.258 421.71 651.045C421.787 650.858 421.901 650.673 422 650.495C422.058 650.39 422.131 650.292 422.186 650.186C422.209 650.141 422.236 650.099 422.263 650.056C422.308 649.986 422.331 649.907 422.379 649.839C422.426 649.771 422.466 649.694 422.51 649.623C422.573 649.523 422.646 649.429 422.706 649.327C422.937 648.938 423.133 648.532 423.356 648.139C423.573 647.757 423.79 647.369 423.96 646.963C424.062 646.721 424.174 646.486 424.292 646.251C424.337 646.16 424.386 646.07 424.431 645.978C424.457 645.924 424.478 645.863 424.515 645.817" stroke="#E4F0E8" stroke-width="0.2" stroke-linecap="round"/>
<path d="M422.773 648.989C422.649 649.115 422.534 649.245 422.418 649.377" stroke="#E4F0E8" stroke-width="0.2" stroke-linecap="round"/>
<path d="M422.894 653.587C422.416 653.485 421.948 653.32 421.482 653.172" stroke="#E4F0E8" stroke-width="0.2" stroke-linecap="round"/>
<path d="M421.809 653.4C422.081 653.519 422.355 653.622 422.632 653.726" stroke="#E4F0E8" stroke-width="0.2" stroke-linecap="round"/>
<path d="M432.263 630.567C432.105 630.901 431.92 631.22 431.766 631.555" stroke="#E4F0E8" stroke-width="0.2" stroke-linecap="round"/>
<path d="M431.68 631.044C431.426 631.28 431.155 631.497 430.901 631.733C430.716 631.905 430.482 632.126 430.329 632.333C429.931 632.869 430.382 632.321 430.074 632.831" stroke="#E4F0E8" stroke-width="0.2" stroke-linecap="round"/>
<path d="M424.062 647.048C424.088 646.661 424.404 646.314 424.555 645.966C424.642 645.766 424.722 645.561 424.846 645.381C425.151 644.937 425.41 644.447 425.683 643.979C426.2 643.092 426.658 642.161 427.169 641.276C427.374 640.922 427.55 640.559 427.779 640.217C427.899 640.037 428.011 639.823 428.11 639.632C428.197 639.465 428.302 639.309 428.388 639.14C428.711 638.507 429.001 637.843 429.368 637.232" stroke="#E4F0E8" stroke-width="0.2" stroke-linecap="round"/>
<path d="M424.916 645.307C424.815 645.448 424.715 645.59 424.615 645.732" stroke="#E4F0E8" stroke-width="0.2" stroke-linecap="round"/>
<path d="M424.841 645.443C424.718 645.671 424.627 645.911 424.49 646.131" stroke="#E4F0E8" stroke-width="0.2" stroke-linecap="round"/>
<path d="M429.258 637.425C429.368 637.272 429.469 637.114 429.576 636.959C429.63 636.881 429.664 636.794 429.712 636.712C429.842 636.493 429.947 636.251 430.095 636.044C430.246 635.832 430.372 635.595 430.505 635.371C430.57 635.259 430.639 635.148 430.715 635.043C430.8 634.924 430.857 634.777 430.921 634.646C430.976 634.532 431.019 634.408 431.089 634.301C431.137 634.227 431.181 634.126 431.21 634.042C431.246 633.937 431.306 633.836 431.355 633.735C431.403 633.636 431.432 633.528 431.477 633.429C431.54 633.285 431.592 633.145 431.634 632.993C431.691 632.784 431.749 632.575 431.808 632.367C431.864 632.172 431.904 631.973 431.935 631.773C432.005 631.316 432.052 630.852 432.052 630.39" stroke="#E4F0E8" stroke-width="0.2" stroke-linecap="round"/>
<path d="M429.421 637.198C428.951 637.756 428.568 638.39 428.217 639.027" stroke="#E4F0E8" stroke-width="0.2" stroke-linecap="round"/>
<path d="M429.387 637.343C429.068 637.894 428.75 638.446 428.384 638.967C428.27 639.129 428.152 639.276 428.016 639.417" stroke="#E4F0E8" stroke-width="0.2" stroke-linecap="round"/>
<path d="M491.944 621.107C491.918 621.574 491.702 622.018 491.464 622.41C491.288 622.7 491.084 622.975 490.854 623.225C490.799 623.285 490.764 623.313 490.691 623.341" stroke="#041006" stroke-width="0.4" stroke-linecap="round"/>
<path d="M490.705 622.812C491.207 622.09 491.763 621.361 491.915 620.475C491.93 620.387 491.947 620.297 491.958 620.209" stroke="#041006" stroke-width="0.4" stroke-linecap="round"/>
<path d="M490.488 621.864C490.971 621.258 491.401 620.612 491.694 619.892C491.778 619.685 491.874 619.455 491.893 619.229" stroke="#041006" stroke-width="0.4" stroke-linecap="round"/>
<path d="M491.806 619.654C491.587 620.602 491.318 621.539 491.024 622.465C490.962 622.661 490.903 622.955 490.721 623.085" stroke="#041006" stroke-width="0.4" stroke-linecap="round"/>
<path d="M490.867 622.358C490.969 622.159 491.08 621.964 491.188 621.769C491.418 621.354 491.677 620.942 491.857 620.502C491.866 620.481 491.947 620.288 491.841 620.406C491.598 620.676 491.411 621.003 491.223 621.311C491.061 621.577 490.903 621.845 490.752 622.117C490.733 622.151 490.714 622.185 490.697 622.22C490.69 622.233 490.711 622.196 490.718 622.183C490.739 622.145 490.893 621.859 490.897 621.852C491.043 621.582 491.197 621.316 491.351 621.05" stroke="#041006" stroke-width="0.4" stroke-linecap="round"/>
<path d="M592.894 692.384C592.793 692.44 592.818 692.429 592.643 692.493C592.62 692.501 591.938 692.698 592.525 692.457C592.562 692.441 592.802 692.297 592.859 692.439C592.873 692.474 592.835 692.518 592.85 692.553C592.882 692.63 593.021 692.623 593.07 692.644C593.124 692.668 593.148 692.743 593.205 692.761C593.245 692.773 593.567 692.613 593.099 692.776C592.905 692.843 592.691 692.938 592.503 693.023C592.479 693.033 592.409 693.067 592.433 693.057C592.57 692.998 592.728 692.915 592.858 692.856" stroke="#E4F0E8" stroke-width="0.4" stroke-linecap="round"/>
<path d="M593.094 693.027C592.921 693.13 592.738 693.222 592.573 693.339C592.494 693.395 592.415 693.461 592.347 693.53C592.202 693.677 592.336 693.553 592.217 693.689" stroke="#E4F0E8" stroke-width="0.4" stroke-linecap="round"/>
<path d="M618.844 684.715C618.9 684.659 618.957 684.603 619.023 684.559C619.081 684.521 619.145 684.49 619.21 684.464C619.355 684.406 619.499 684.357 619.656 684.343C619.777 684.332 619.893 684.356 620.009 684.389C620.098 684.414 620.195 684.446 620.275 684.494C620.3 684.509 620.321 684.529 620.344 684.547" stroke="#E4F0E8" stroke-width="0.1" stroke-linecap="round"/>
<path d="M619.172 684.545C619.33 684.51 619.504 684.469 619.664 684.44C620.147 684.354 619.574 684.462 619.979 684.401" stroke="#E4F0E8" stroke-width="0.1" stroke-linecap="round"/>
<path d="M619.547 684.458C619.573 684.429 619.645 684.37 619.555 684.391C619.538 684.395 619.437 684.425 619.42 684.431C619.396 684.44 619.376 684.447 619.412 684.451C619.459 684.457 619.527 684.465 619.574 684.453C619.601 684.446 619.518 684.46 619.491 684.464" stroke="#E4F0E8" stroke-width="0.1" stroke-linecap="round"/>
<path d="M620.352 684.539C620.352 684.603 620.34 684.645 620.292 684.691C620.254 684.727 620.211 684.76 620.168 684.789C620.065 684.858 619.956 684.922 619.841 684.972C619.768 685.004 619.692 685.022 619.613 685.035" stroke="#E4F0E8" stroke-width="0.1" stroke-linecap="round"/>
<path d="M616.316 707.587C616.317 707.399 616.318 707.21 616.331 707.022C616.34 706.885 616.366 706.749 616.378 706.612C616.396 706.418 616.398 706.225 616.428 706.032C616.448 705.902 616.466 705.777 616.468 705.646C616.471 705.434 616.472 705.221 616.466 705.009C616.463 704.905 616.466 704.773 616.424 704.674" stroke="#E4F0E8" stroke-width="0.1" stroke-linecap="round"/>
<path d="M616.414 704.611C616.401 705.027 616.433 705.444 616.425 705.859C616.423 705.997 616.419 706.138 616.396 706.273" stroke="#E4F0E8" stroke-width="0.1" stroke-linecap="round"/>
<path d="M495.931 671.639C495.916 671.739 495.904 671.84 495.896 671.941" stroke="#041006" stroke-width="0.1" stroke-linecap="round"/>
<path d="M495.846 671.876C495.868 671.755 495.912 671.639 495.962 671.526" stroke="#041006" stroke-width="0.1" stroke-linecap="round"/>
<path d="M475.61 656.877C475.526 657.036 475.441 657.193 475.348 657.346C475.323 657.386 475.247 657.504 475.273 657.465C475.315 657.401 475.281 657.444 475.361 657.338C475.447 657.222 475.503 657.155 475.602 657.047C475.611 657.038 475.757 656.88 475.802 656.854C475.842 656.831 475.759 656.938 475.732 656.977C475.682 657.046 475.601 657.154 475.548 657.224C475.533 657.243 475.519 657.261 475.505 657.28C475.475 657.321 475.569 657.201 475.601 657.162C475.708 657.03 476.036 656.641 475.922 656.767C475.78 656.924 475.642 657.087 475.504 657.248C475.436 657.327 475.376 657.404 475.322 657.491" stroke="#041006" stroke-width="0.1" stroke-linecap="round"/>
<path d="M475.967 656.759C475.715 657.052 475.465 657.348 475.266 657.68" stroke="#041006" stroke-width="0.1" stroke-linecap="round"/>
<path d="M475.906 656.839C475.767 657.094 475.605 657.335 475.453 657.582C475.388 657.688 475.331 657.797 475.277 657.909" stroke="#041006" stroke-width="0.1" stroke-linecap="round"/>
<path d="M475.74 657.12C475.717 657.142 475.704 657.181 475.687 657.208C475.645 657.276 475.596 657.339 475.549 657.404C475.428 657.576 475.332 657.762 475.219 657.938" stroke="#041006" stroke-width="0.1" stroke-linecap="round"/>
<path d="M475.232 658.191C474.708 658.588 474.207 659.014 473.684 659.41" stroke="#041006" stroke-width="0.1" stroke-linecap="round"/>
<path d="M474.947 658.235C474.82 658.394 474.68 658.544 474.558 658.705C474.417 658.89 474.917 658.411 475.091 658.257C475.16 658.196 475.142 658.213 475.09 658.254C474.997 658.329 474.909 658.4 474.811 658.47C474.563 658.647 474.767 658.454 474.826 658.4" stroke="#041006" stroke-width="0.1" stroke-linecap="round"/>
<path d="M475.232 658.301C474.702 658.745 474.087 659.071 473.508 659.443" stroke="#041006" stroke-width="0.1" stroke-linecap="round"/>
<path d="M475.024 658.312C474.871 658.457 474.692 658.553 474.508 658.652" stroke="#041006" stroke-width="0.1" stroke-linecap="round"/>
<path d="M475.435 657.584C475.448 657.765 475.41 657.952 475.385 658.131" stroke="#041006" stroke-width="0.1" stroke-linecap="round"/>
<path d="M475.367 658.09C475.293 658.194 475.214 658.306 475.113 658.387" stroke="#041006" stroke-width="0.1" stroke-linecap="round"/>
<path d="M475.383 658.16C475.327 658.215 475.27 658.269 475.207 658.316" stroke="#041006" stroke-width="0.1" stroke-linecap="round"/>
<path d="M477 657.238C476.815 657.22 476.633 657.186 476.447 657.18C476.403 657.179 476.36 657.181 476.316 657.183" stroke="#4ADE80" stroke-width="0.1" stroke-linecap="round"/>
<path d="M476.117 657.098C476.343 657.079 476.575 657.086 476.797 657.129" stroke="#4ADE80" stroke-width="0.1" stroke-linecap="round"/>
<path d="M476.023 657.007C476.115 657.009 476.207 657.011 476.298 657.014C476.319 657.015 476.339 657.016 476.359 657.017C476.365 657.018 476.38 657.015 476.377 657.02C476.366 657.034 476.237 657.032 476.232 657.033C476.182 657.036 476.117 657.039 476.067 657.041C476.05 657.042 476 657.046 476.015 657.036C476.027 657.029 476.096 657.007 476.102 657.005C476.137 656.995 476.174 656.984 476.139 657.029C476.135 657.035 476.086 657.089 476.079 657.096C476.075 657.101 476.061 657.113 476.062 657.107C476.064 657.098 476.08 657.06 476.082 657.056C476.085 657.049 476.125 656.988 476.118 656.979C476.104 656.959 475.97 657.055 475.961 657.062C475.924 657.09 475.886 657.121 475.859 657.16" stroke="#4ADE80" stroke-width="0.1" stroke-linecap="round"/>
<path d="M475.867 657.121C475.958 657.023 476.055 656.932 476.152 656.84" stroke="#4ADE80" stroke-width="0.1" stroke-linecap="round"/>
<path d="M475.922 657.027C475.903 657.052 475.883 657.077 475.873 657.107C475.87 657.119 475.867 657.13 475.859 657.141" stroke="#4ADE80" stroke-width="0.1" stroke-linecap="round"/>
<path d="M376.488 452.912C371.847 459.91 367.212 466.901 362.799 474.042" stroke="#4ADE80" stroke-width="11" stroke-linecap="round"/>
<path d="M439.748 461.215C443.587 465.423 447.433 469.625 451.282 473.824" stroke="#4ADE80" stroke-width="11" stroke-linecap="round"/>
<path d="M441.213 467.373C441.575 469.872 442.006 472.329 442.484 474.802" stroke="#4ADE80" stroke-width="11" stroke-linecap="round"/>
<path d="M567.188 476.209C567.516 483.643 567.957 490.87 569.637 498.121" stroke="#4ADE80" stroke-width="11" stroke-linecap="round"/>
<path d="M560.927 481.244C554.677 484.923 548.274 488.317 541.873 491.724" stroke="#4ADE80" stroke-width="11" stroke-linecap="round"/>
<path d="M169.533 680.318C167.746 686.357 165.978 692.186 166.121 698.511" stroke="#4ADE80" stroke-width="11" stroke-linecap="round"/>
<path d="M870.204 582.561C867.377 591.109 864.204 599.401 860.489 607.601C859.353 610.108 860.693 608 861.236 607.312" stroke="#041006" stroke-width="11" stroke-linecap="round"/>
<path d="M875.942 587.941C873.002 593.223 870.053 598.377 866.456 603.246C864.906 605.345 863.239 607.432 861.594 609.464" stroke="#041006" stroke-width="11" stroke-linecap="round"/>
<path d="M743.713 409.329C745.536 412.605 747.416 415.699 749.75 418.645C751.261 420.553 752.994 422.874 755.012 424.329C755.449 424.644 755.728 424.655 755.728 425.232" stroke="#041006" stroke-width="11" stroke-linecap="round"/>
<path d="M827.998 531.182C825.913 532.693 823.827 534.206 821.697 535.656C820.645 536.373 819.582 537.088 818.459 537.691" stroke="#4ADE80" stroke-width="11" stroke-linecap="round"/>
<path d="M338.922 338.718C339.261 339.919 339.597 341.043 340.25 342.118C340.588 342.673 341.004 343.14 341.413 343.637" stroke="#08110E" stroke-width="5" stroke-linecap="round"/>
<path d="M343.778 343.015C343.361 345.655 342.979 348.253 342.906 350.923" stroke="#08110E" stroke-width="5" stroke-linecap="round"/>
<path d="M457.499 257.5C452 257.5 408.833 255.167 387.499 253C385.099 264.6 397.499 274.5 403.999 278C422.799 277.6 447.499 264.167 457.499 257.5Z" fill="#E4F0E8" stroke="#E4F0E8"/>
<path d="M484.001 257.5C486.5 257.5 532.667 255.167 554.001 253C556.401 264.6 544.001 274.5 537.501 278C518.701 277.6 494.001 264.167 484.001 257.5Z" fill="#E4F0E8" stroke="#E4F0E8"/>
<path d="M68.9512 763.031C70.3046 766.211 70.84 767.653 72.4844 770.744C74.214 773.995 76.2451 777.038 78.3416 780.057C78.4899 780.27 79.2633 781.291 79.4618 781.795C79.5099 781.918 79.4737 782.023 79.3838 782.091" stroke="#4ADE80" stroke-width="5" stroke-linecap="round"/>
<path d="M68.8516 768.95C70.0555 772.161 71.2291 775.382 72.4629 778.58" stroke="#4ADE80" stroke-width="5" stroke-linecap="round"/>
<path d="M103.426 700.089C103.37 701.241 102.933 702.329 102.584 703.417C102.153 704.761 101.65 706.931 100.153 707.459C98.916 707.894 97.3462 707.464 96.154 707.147C92.0362 706.051 88.1181 704.26 84.1401 702.763C80.0307 701.217 75.8711 699.832 71.5879 698.858" stroke="#4ADE80" stroke-width="5" stroke-linecap="round"/>
<path d="M121.147 673.601C120.586 674.553 119.806 675.41 119.077 676.224C115.7 679.993 111.803 683.05 107.816 686.141C104.629 688.61 101.463 691.056 98.6842 693.993C97.2055 695.556 95.8415 697.305 94.4844 698.978" stroke="#4ADE80" stroke-width="5" stroke-linecap="round"/>
<path d="M102.686 674.045C105.907 671.466 106.123 671.196 109.726 668.755C112.664 666.765 115.384 665.158 118.337 663.212C119.638 662.355 121.237 661.312 122.431 660.205C123.913 658.831 122.309 660.242 122.902 659.48" stroke="#4ADE80" stroke-width="5" stroke-linecap="round"/>
<path d="M112.793 666.002C109.973 669.906 106.635 673.485 103.506 677.137C101.314 679.695 99.1161 682.248 96.9238 684.805" stroke="#4ADE80" stroke-width="5" stroke-linecap="round"/>
<path d="M706.33 456.559C701.499 456.244 696.675 455.81 691.843 455.51C690.138 455.404 688.434 455.331 686.727 455.331" stroke="#041006" stroke-width="5" stroke-linecap="round"/>
<path d="M590.5 727.5V709L593 693.5L593.5 694L595 705.5V711L596 719.5C595.833 721.667 595.8 726.6 597 729C598.2 731.4 604.167 739.333 607 743" stroke="#E4F0E8"/>
<path d="M37.5894 739C37.5894 751.984 37.4402 764.963 37.2838 777.947C37.2108 784.003 37.4469 790.143 37 796.176" stroke="#041006" stroke-width="5" stroke-linecap="round"/>
<path d="M37 755C37.7505 774.187 37.1965 793.374 37.1965 812.569" stroke="#041006" stroke-width="5" stroke-linecap="round"/>
<path d="M595.5 705.5H594.5L593 693.5L593.5 693M595.5 705.5L593.5 693M595.5 705.5C599 705.166 606.7 704.9 609.5 706.5M593.5 693C596.167 692.166 602.6 690.6 607 691" stroke="#4ADE80"/>
<path d="M662.201 695.97C661.531 697.568 661.13 699.324 660.719 701.001C660.412 702.252 660.153 703.514 659.914 704.78" stroke="#041006" stroke-linecap="round"/>
<path d="M660.339 696.647C659.751 699.373 659.196 702.109 658.771 704.865" stroke="#041006" stroke-linecap="round"/>
<path d="M660.009 695.417C659.864 696.019 659.606 696.6 659.315 697.145C659.204 697.353 659.083 697.556 658.943 697.745C658.864 697.851 658.758 697.978 658.658 698.066C658.399 698.296 658.643 698.055 658.389 698.245" stroke="#E4F0E8" stroke-linecap="round"/>
<path d="M606.693 742.453C607.136 743.183 607.273 743.449 607.828 744.168C608.997 745.682 610.319 747.088 611.701 748.408C612.823 749.479 613.626 750.167 614.828 751.118C615.224 751.43 615.626 751.734 616.036 752.028C618.401 753.73 615.7 751.76 617.206 752.76" stroke="#E4F0E8" stroke-linecap="round"/>
<path d="M424.972 605.013C424.932 606.088 424.82 607.12 424.549 608.164C424.494 608.375 424.432 608.585 424.369 608.794" stroke="#4ADE80" stroke-linecap="round"/>
<path d="M232.242 612L224.771 584.116L204.358 604.529L232.242 612ZM218.1 594.322L4.00995 380.232L0.474421 383.768L214.565 597.858L218.1 594.322Z" fill="white"/>
</svg>
